<svg xmlns="http://www.w3.org/2000/svg" xmlns:xlink="http://www.w3.org/1999/xlink" width="3488" height="3488" viewBox="0 0 3488 3488">
  <defs>
    <radialGradient id="radial-gradient" cx="0.5" cy="0.5" r="0.5" gradientUnits="objectBoundingBox">
      <stop offset="0" stop-color="#0882fc" stop-opacity="0.529"/>
      <stop offset="1" stop-color="#00577c"/>
    </radialGradient>
  </defs>
  <g id="Group_25547" data-name="Group 25547" transform="translate(500 -1744)">
    <path id="Path_21070" data-name="Path 21070" d="M1744,0c963.185,0,1744,780.815,1744,1744S2707.185,3488,1744,3488,0,2707.185,0,1744,780.815,0,1744,0Z" transform="translate(-500 1744)" fill="url(#radial-gradient)"/>
    <g id="Clipped" transform="translate(309.629 2500.488)">
      <path id="Path" d="M1868.742,327.8c0,180.707-146.337,326.52-327.711,326.52H327.711C146.351,655.568,0,508.508,0,327.8S146.351,1.279,327.711,1.279h1212.06C1722.406,1.279,1868.742,147.094,1868.742,327.8Z" transform="translate(0 -1.279)" fill="#fff"/>
    </g>
    <g id="Clipped-2" data-name="Clipped" transform="translate(309.629 3351.048)">
      <path id="Path-2" data-name="Path" d="M1598.37,279.521c0,154.58-125.167,279.31-280.3,279.31H280.3C125.166,559.892,0,434.1,0,279.521S125.166.207,280.3.207H1317C1473.2.207,1598.37,124.938,1598.37,279.521Z" transform="translate(0 -0.207)" fill="#fff"/>
    </g>
    <g id="Clipped-3" data-name="Clipped" transform="translate(309.629 4098.944)">
      <path id="Path-3" data-name="Path" d="M318.088,0C142.41,0,0,142.424,0,318.088c0,175.68,142.41,318.091,318.088,318.091S636.161,493.767,636.161,318.088C636.161,142.424,493.753,0,318.088,0" fill="#fff"/>
    </g>
  </g>
</svg>
